<svg width="45" height="45" viewBox="0 0 45 45" fill="none" xmlns="http://www.w3.org/2000/svg">
<rect x="0.000976562" width="45" height="45" rx="10" fill="#F1EAFF"/>
<path fill-rule="evenodd" clip-rule="evenodd" d="M22.7221 23.7481L21.2429 22.6947C20.6302 22.2595 20.4926 21.4162 20.9327 20.8117C21.3728 20.2057 22.2254 20.0681 22.8367 20.5049L24.3158 21.5583C24.9286 21.9935 25.0676 22.8368 24.626 23.4413C24.1859 24.0458 23.3333 24.1834 22.7221 23.7481ZM28.3018 24.3964L29.0413 24.9238L33.1472 19.2837C33.5384 18.7457 33.4161 17.9946 32.8706 17.6077L31.15 16.3805C30.7466 16.0949 30.1889 16.042 29.787 16.3291C28.9772 16.908 27.8525 16.9397 26.9983 16.3307C26.1442 15.7216 25.8172 14.6561 26.1151 13.7146C26.2633 13.2461 26.0357 12.7398 25.6338 12.4527L23.9117 11.227C23.3677 10.8386 22.6083 10.961 22.2155 11.4991L18.1112 17.1392L18.8508 17.6666C19.462 18.1019 19.6011 18.9452 19.161 19.5497C18.7209 20.1542 17.8683 20.2917 17.2555 19.8565L16.5159 19.3291L12.2298 25.2155C11.8386 25.7551 11.9608 26.5047 12.5063 26.8931L14.2269 28.1187C14.6303 28.4059 15.1881 28.4588 15.5899 28.1716C16.3998 27.5928 17.5244 27.561 18.3786 28.1701C19.2328 28.7791 19.5598 29.8431 19.2618 30.7861C19.1136 31.2531 19.3413 31.7609 19.7432 32.0481L21.4653 33.2737C22.0093 33.6606 22.7687 33.5397 23.1614 33.0002L27.4461 27.1137L26.7065 26.5863C26.0953 26.151 25.9562 25.3077 26.3963 24.7032C26.8364 24.0987 27.689 23.9612 28.3018 24.3964Z" fill="#884DFF"/>
</svg>
